<?xml version="1.0" encoding="UTF-8"?>
<svg id="Capa_1" data-name="Capa 1" xmlns="http://www.w3.org/2000/svg" viewBox="0 0 1243.17 721.09">
  <defs>
    <style>
      .cls-1 {
        fill: #8b241c;
      }
    </style>
  </defs>
  <g>
    <path class="cls-1" d="M399.54,328.18c8.59,9.94-7.91,16.33-15.55,19.18-4.89,2.16-10.98,2.77-14.63,6.56-26.87,29.13-32.69,216.44-20.18,254.85,9.48,25.92,24.6,18.64,39.01,13.92,1.93.79,2.76,3.24,3.39,5.93.91,13.77-17.56,23.95-30.61,24.56-90.19,8.78-47.61-145.44-49.44-202.81-.11-2.45-1-1.14-1.82.41-24.66,46.67-36.62,114.95-60.17,159.88-3.75,6.34-11.16,23.73-20.02,14.44-16.7-26.19-17.12-62.96-28.13-92.43-6.7-18.17-15.85-41.92-22.38-59.18-11.66,65.78-12.31,188.64-99.78,196.15-112.23,12.75-98.01-155.15-2.68-144.55,48.3,8.1,50.46,80.77,11.52,79.24-10.46-.27-8.73-10.5-11.07-19.98-1.34-8.42-9.02-14.61-17.56-15.72-22.77-4.95-40.51,14.74-39.05,37.09.34,11.34,4.8,22.98,13.69,31.31,8.61,8.91,25.89,13.75,42.24,11.29,71.36-6.56,92.48-195.8,80.59-249.04-11.52-46.13-100.42-41.5-108.03,7.71-6.03,31.13,39.92,44.79,44.41,19.47.88-6.3-.05-14.14,1.01-20.14,2.49-12.54,16.89,2.09,21.68,6.19,35.94,35.48-20.12,81.33-57.36,59.34-92.09-56.84,31.49-164.49,102.87-122.76,51.95,32.72,59.3,131.7,83.07,186.91.31,1.44,1.8,2.08,3.25,2.14,2.95.26,6.26-.43,7.35-3.37,22.98-48.42,58.24-182.68,104.07-203.04,8.82-3.33,34.65-7.76,40.15-3.69l.15.15h.01Z"/>
    <path class="cls-1" d="M639.62,528.07c5.06,2.48,13.41-.47,17.45-5.97,7.48-14.66-3.55-36.42-2.49-52.83,1.82-30.53,27.05-82.34,57.56-90.34,7.99-1.56,20.71-1.1,27.53-1.15,1.95-.13,5.43.45,5.41-1.84,2.09-9.39,2.11-65.26-.1-72.92-.74-4.4-31.51,5.93-20.17-14.77,7.16-6.25,44.47-16.3,56.16-25.16,15.3,33.31-14.47,223.56,3.32,239.23.32.29.69.46,1.25.31,3.66-.8,17.9-18.81,22.89-13.84,5.8,12.04-2,23.44-12.76,32.18-9.73,7.8-22.26,13.32-31.04,11.56-5.01-.97-8.59-5.77-12.18-9.42-14.68-16.98-23.5,19.29-48.52,19.25-22.63,1.67-36.36-20.82-39.58-19.15-.98,10.09-4.2,21.06-16.74,26.73-67.18,34.74-45.53-55.75-45.23-100.39-.54-12.26-3.64-20.64-12.53-21.18-34.31,1.22-34.8,94.23-31.36,109.55,2.18,6.69,12.26,9.2,17.62,14.38,2.67,2.31,4.38,4.8,1.7,6.42-6.48,3.39-40.05,11.65-59.73,14.3-8.97.54-14.14,3.32-16.29-3.83-1.59-6.9,10.23-13.65,14.93-17.48,1.39-1.16,2.02-1.79,2.37-3.25,2.41-12.06,3.76-51.31,5.01-69.35,2.67-29.99,5.82-49.32-23.86-38.78-3.02.91-7.26,3.23-5.5-1.62,8.65-27.2,53.18-54.67,65.05-21.59.42,1.24,1.24,3.67,2.25,3.67,14.21-12.62,28.68-30.49,47.56-26.94,13.05,1.98,23.91,14,29.46,26.03.74,18.96-4.49,99.24.46,108.15l.1.06h-.01ZM743.46,403.08c-59.73-34.51-60.21,150.06-10.42,98.76,3.04-3.14,4.86-5.43,5.69-8.8,2.77-14.28,5.1-47.31,5.79-64.86.29-12.72.8-21.75-.98-25.02l-.09-.09h.01Z"/>
    <path class="cls-1" d="M785.12,222.53c3.66,1.53,7.43.04,10.51-2.25,11.84-6.95,4.13-21.08,4.1-31.87.2-15,8.83-39.74,15.86-53.33,10.19-17.62,31.18-24.36,48-26.79,3.85-.92,5.65-.17,6.14-2.65,1.31-6.74,1.14-41.13.13-48.81-1.65-7.04-12.67-7.37-15.31-14.44-1.11-2.92-1.77-8.65,1.02-10.65,5.56-1.93,36.08-12.99,41.23-14.68,4.99.45,3.66,57.87,3.42,88.89-.14,7.62-.23,12.71-.42,19.24,1.16.2-15.87,83.03,3.66,75.87,3.43-3.07,12.3-13.86,16.92-7.41,8.23,12.41-15.68,34.42-33.08,34.08-7.31.33-14.39-5.8-19.97-8.96-6.79,0-10.17,15.85-28.22,17.63-6.8.56-13.51-.15-19.74-3.15-3.5-1.9-5.4-6.53-7.27-9.68-1.98-4.04-5.31-3.5-7.78-.64-5.14,5.46-1.74,11.35-7.44,15.82-4.81,3.57-10.23,4.63-16.25,5.18-14.11,1.08-22.24-6.24-27.44-5.92-1.54.14-2.65.83-4.06,1.89-12.29,11.76-21.88,22.57-39.93,13.31-4.76-1.91-9.7-4.8-14.72-3.01-14.38,6.66-24.16,19.79-41.39,4.63-5.1-3.15-8.41-.79-12.83,3-43.45,33.58-70-19.65-51.24-68.23,8.27-22.73,26.23-49.88,52.45-51.87,2.48-.45,5.96.26,7.57-1.19,2.22-12.55,1.06-42.99.18-50.29-.34-1.31-1.14-1.77-2.45-2.65-3.25-2-8.52-4.99-8.79-9.67-.14-2.72.6-5.98,2.99-7.32,6.34-3.05,31.37-14.35,42.85-14.65,1.03,7.55-4.64,176.39-4.48,185.04,18.33,1.63,18.47-16.43,20.76-29.89,4.62-34.33,52.93-21.96,49.45-58.78.09-4.59-.06-6.84-5.17-6.23-5.31.64-10.87,1.37-15.39,4.41-6.98,4.98,1.48,12.39-.77,18.86-4.47,8.88-20.67,12.32-23.92,3.85-5.84-13.26,3.75-31.09,15.26-39.33,21.09-14.93,61.37-8.76,64.58,16.52.75,10.07-1.44,19.52-2.16,30.75-.4,10.98-5.04,39.98,2.95,45.25l.19.09v.05ZM863.06,201.5c.42-.61.4-1.24.28-1.93-1.62-11.9,3.15-30.77,4.21-44.09.68-6.81.85-13.14-.1-18.09-.94-6.46-5.45-11.21-11.78-10.24-23.59,4.34-37.73,104.13,7.26,74.55l.14-.18h-.01ZM637,157.31c-4.07,1.26-8.36,8.42-11.33,12.36-11.06,15.14-15.12,35.91-10.77,53.1,7.44,28.79,26.89,24.13,28.64-1.08,2.28-15.91,5.65-44.64,5.88-50.92-.03-6.49-5.08-14.75-12.2-13.5l-.23.05h0ZM749.12,187.11c-5.74-4.49-14.15,6.02-18.07,11.21-6.52,9.1-11.29,20.95-7.94,27.25,1.01,1.96,2.09,2.44,4.72,2.54,5.56.13,12.8-.73,17.49-3.8,1.08-.78,1.76-1.48,2.26-2.56,1.85-4.38,2.53-17.72,2.45-26.47-.2-4.08.13-6.21-.85-8.06l-.08-.09h.01Z"/>
    <path class="cls-1" d="M368.77,77.25c-3.76-3.93-9.31-4.13-15.35-2.22-16.02,5.79-33.97,22.51-42.38,37.76-16.6,34.11-25.03,109.64-27.17,149.82-.43,14.06,7.3,40.51-1.25,49.59-6.74,5.21-15.68-3.33-18.83-9.47-25.61-41.91-32.85-94.68-64.44-131.94-1.62-1.89-2.72-1.84-3.27.61-8.04,39.47-5.96,82.28-27.31,117.74-12.8,21.54-34.33,39.93-60.5,39.91-18.52-.06-36.55-9.89-47.52-24.67-28.07-36.16,2.68-94.35,48.54-90.71,17.96.78,35.05,16.29,34.28,34.69-.55,14.33-11.75,25.76-24.62,32.23-.98.52-2.41,1.11-3.25.6-.51-.32-.77-1.06-.87-2.04-.23-6.06-.54-12.45-2.68-18.22-10.65-28.99-44.83-6.03-44.73,18.35-.52,9.68,6.67,19.69,15.35,24.55,74.23,43.75,112.96-136.52,91.97-179-8.42-14.23-30.89-19.63-50.3-15.18-8.76,2.02-16.92,6.02-22.88,12.12-7.39,7.55-11.42,18.35-9.13,32.46.46,2.56.94,5.35,2.62,7.21,4.12,4.25,14.42,4.35,19.9.78,7.46-4.91,9.93-21.23,16.84-23.64,5.01-1.58,10.46,4.47,13.36,8.29,26.1,35.17-50.84,69.28-68.54,25.85-3.83-9.47-4.34-21.51-2.78-31.86,6.42-42.64,56.33-60.21,95.01-52.74,7.65,1.47,13.75,4.82,20.12,9.8,22.24,18.33,37.56,47.89,50.61,73.47,6.28,12.63,11.7,24.44,16.06,33.49,8.06,15.87,11.3,25.64,15.87,6.8,4.32-18.05,6.94-48.08,9.76-68.65,7.76-43.49,34.78-93.71,84.65-91.26,12.38.09,28.31,5.54,34.22,16.23,6.15,9.99,5.19,22.61-.8,31.91-6.01,10.35-21.64,16.46-33.76,10.76-12.44-6.39,11.18-23.55,3.37-33.22l-.15-.18h0Z"/>
    <path class="cls-1" d="M1168.26,571c-11.3,10.56-38.62,23.53-49.88,7-8.74-13.33,6.29-34.26,16.57-35.29,9.03-.84,6.43,16.33,15.45,15.14,8.09-1.07,15.93-9.03,12.81-16.92-2.05-7.4-11.9-14.85-21.31-17.01-41.95-8.89-142.14,12.27-210.98,26.43-137.21,24.29-347.72,101.01-481.12,87.43-12.66-1.53-50.96-13.01-46.4-24.09.77-1.38,1.71-1.08,3.81-.75,12.22,2.28,31.83,9.5,45.35,10.13,187.27,5.54,445.1-103.47,642.48-115.83,26.23-.87,72.99-3.11,83.23,22.84,5.24,14.05.47,30.19-9.85,40.7l-.19.19h.01Z"/>
    <path class="cls-1" d="M1185.11,437.4c.54.34,1.44,0,2.97-.85,4.94-2.79,10.46-7.13,16.22-8.55,6.89-1.31,12.43,3.94,9.52,10.16-5.03,11.42-24.67,27.71-38.68,28.31-8.15-.18-14.35-7.36-20.73-11.38-2.86-1.7-5.24-2.33-7.41-1.37-2.36,1.19-6.37,4.82-11.14,8.74-4.91,4.02-10.1,8.13-15.48,10.53-61.35,24.47-71.83-60.24-24.9-85.72,10.59-6.66,24.11-13.24,34.28-19.53,10.4-6.75,16.2-10.56,14.77-21.5-2.31-17.78-25.67-26.75-32.49-8.11-.48,8.8,1.01,45.52-19.21,34.01-61.74-37.53,83.13-117.07,87.43-34.87.55,7.14.45,19.19.33,32.55-.1,12.62-.23,26.41.15,38.34.65,13.71,1.03,24.15,4.3,29.18l.08.05v.03ZM1144.7,387.43c-10.07-7.37-30.56,13.98-35.9,23.08-6.28,9.99-8.74,20.81-1.7,27.91,10.35,9.67,22.8,8.7,29.84-2.17,7.44-9.81,14.34-38.75,7.86-48.71l-.1-.1h0Z"/>
    <path class="cls-1" d="M1054.66,147.19c-2.79-3.62-11.99-3.44-17.15-1.08-1.29.55-3.32.97-2.86,2.4,2.68,7.41,2.4,18.35-2.93,26.4-7.06,14.29-51.98,30.17-41.08,45.79,19.09,18.23,38.04-15.42,47.79-13.84,6.85,1.95-17.12,40.61-39.31,43.42-7.02,1.52-15.95-.38-22.9-4.75-35.89-21.08-19.16-93.13,15.39-109.41,23.87-10.7,29.93,9.96,46.53,5.87,8.65-2.79,9.44-14.93,22.12-18.27,5.75-1.67,12.53-1.3,16.34,3.61,1.82,2.32,2.6,5.12,3.3,7.09.59,1.65,1.08,2.69,2.16,2.58,3.87-1.12,5.77-4.9,8.91-8.14,2.28-2.49,5.04-4.86,9.15-6.14,48.14-10.09,32.86,61.1,29.64,81.05.01,1.38-.52,2.56.34,3.53,4.82,2.25,16.28-3.64,19.35,2.41,2.08,4.62-2.64,8.79-5.68,11.69-19.04,18.03-37.19,12.55-39.07-15.07-.4-10.76,3.43-22.43,4.2-34.17.88-11.29,1.58-27.4-12.78-25.67-17.29-.31-22.3,74.21-3.83,84.53.46.29.89.55,1.24.75.92.52,1.05.66.34.79-6.09,1.11-47.69,8.71-53.33,9.72-.85.27-1.34-1.14-1.53-1.66-1.15-3.14-.91-6.86,1.14-9.54,3.3-4.95,10.23-7.17,14.03-10.51,1.3-12.5,2.88-66.46.5-73.29l-.04-.05v-.04ZM1009.56,152c-8.76-8.88-26.94,23.77-20,34.79.71.6,1.81.31,2.63-.1,10.13-5.08,23.7-25.52,17.5-34.54l-.13-.15Z"/>
    <path class="cls-1" d="M873.52,348.42c94.19-12.25,79.84,176.98-16.11,169.45-39.89-2.16-53.51-45.8-50.11-81.03,3.05-38.36,24.92-82.12,65.92-88.39l.31-.05h0ZM883.13,491.6c14.42-16.11,16.53-93.9,4.67-113.09-32.88-45.3-66.6,111.77-15.77,117.99,4.03-.09,8.04-1.93,10.93-4.73l.15-.15h.01Z"/>
    <path class="cls-1" d="M452.8,419.01c42.65-1.81,52.89,47.98,24.07,73.63-18.84,15.88-77.25,33.07-49.11,57.73,7.85,7.37,20.63,12.36,29.9,5.36,9.33-6.29,15.03-18.81,20.82-24.84,1.89-2.18,4.77-3.06,7.67-3.59,8.28-1.61,11.37,1.52,10.9,7.03-.55,6.56-6.09,16.47-13.7,25.72-7.14,8.66-16.06,16.73-24.5,20.95-93.95,43.3-109.64-105.87-41.35-147.34,9.95-6.14,23.56-13.66,35.01-14.62h.28v-.03ZM418.89,502.52c4.35,2.36,28.82-15.34,34.54-34.03,1.57-5.4,1.24-10.13.36-15.48-2.68-15.79-11.37-11.97-19.61-1.07-8.13,10.84-21.96,38.11-15.36,50.48l.08.09Z"/>
    <path class="cls-1" d="M1054.7,322.5c13.86,19.86-53.69,113.66-68.89,136.13-.5.78-1.58,1.77.2,1.61,5.83.06,37,.17,47.8.26,9.35-.11.92-31.75,7.21-37.29,1.45-1.66,3.9-1.37,5.8-.56,5.29,2.27,8.68,6.58,10.61,11.76,5.86,16.24-1.94,40.38-13.55,50.9-6.88,6.03-17.4,10.44-24.98,10.83-13.56,1.22-26.15-4.4-40.43-3.76-7.95.5-16.23,4.91-23.9,7.63-4.59,1.56-11.85,5.06-15.13,2.49-14.9-17.01,58.53-104.02,69.35-125.82.71-1.47,1.37-3.05.97-4.91-2.63-10-44.73-2.74-49.97.7-.55,1.39.27,2.53.66,4.66,1.44,5.54,3.87,14.81,2.04,20.48-1.52,6.35-11.84,6.8-15.02,1.38-6.83-12.15-2.68-35.53,1.79-46.67,13.17-28.22,49.58-17.9,74.66-19.89,8.48-.55,17.39-6.89,25.13-9.61,2.68-.97,4.61-1.15,5.52-.41l.1.08v.03Z"/>
    <path class="cls-1" d="M404.13,272.21c4.1,1.43,18.41-8.27,20.96-1.29.88,3.73-.52,8.05-2.79,10.81-4.63,5.18-18.65,13.83-24.84,15.53-2.58.69-5.42.54-8.17.18-8.54-1.21-13.36-6.75-16.76-7.77-1.88-.63-3.44.1-5.32.71-25.89,11.7-66.98,32.18-63.47-19.8,4.75-44.21,67.86-51.52,65.3-64.39-.28-6.91-6.25-15.45-12.83-18.14-19.03-4.71-4.43,24.29-18.84,30.75-7.92,3.92-22.21,2.18-23.9-6.01-1.61-5.52.84-13.2,6.09-20.67,9.47-13.56,26.94-24.73,44.49-24.58,60.41-1.67,22.14,84.47,39.98,104.62l.11.06h0ZM368.71,232.19c-14.89-10.91-52.05,45.98-16.37,45.8,13.97-2.19,17.61-21.57,18.42-33.32.13-5.87-.08-9.89-1.95-12.36l-.1-.11h0Z"/>
    <path class="cls-1" d="M848.94,262.38c-21.15-14.43-52.95,38.22-14.38,48.1,62.14,13.08,164.78-46.07,234.95-52.73,27.03-2.46,66.94-7.41,84.39,16.9.23.37.4.71.5,1.01.13.41.1.71-.13.89-52.32-9.72-108.16-3-158.98,13.68-58.04,16.82-135.25,54.15-178.73,29.6-27.24-17.57-14.29-56.8,9.95-70.73,13.37-8.78,37.38-5.89,45,8.22,10.07,18.12-7.96,46.59-27.12,37.76-3.56-1.47-8.2-5.14-7.63-9.33.54-5.74,8.08-11.74,11.61-16.6,1.94-2.62,2.51-4.84.73-6.62l-.14-.14h-.03Z"/>
    <path class="cls-1" d="M474.07,241.68c.22.37.42-.19.55-.42,2.33-5.1,11.52-24.87,15.76-34.13,2.72-9.4,7.02-26.13,3.01-33.83-3.98-4.21-12.22-3.11-16.97-6.3-7.65-5.05,2.62-15.02,8.09-16.88,12.25-5.15,28.82,1.07,32.93,14.42,3.84,14.62-10.12,48.11-16.52,64.13-4.98,12.64-11.38,27.57-15.85,36.12-4.66,9.66-14.31,24.65-20.13,24.04-19.46.37-15.34-84.41-36.07-103.47-6.35-3.71-15.71.77-21.89-1.14-5.8-3.25-1.52-9.16,2.26-13.52,5.54-5.96,10.68-10.81,17.9-12.3,36.35-7.78,41.57,56.63,46.92,83.22l.04.08h-.03Z"/>
    <path class="cls-1" d="M960.14,93.16c-12.39,55.7,124.14-30.95,177.6,1.33,6.48,3.42,12.55,8.02,17.93,13.46,11.35,11.48,19.8,27.09,21.38,43.07.89,9.06-.41,18.17-4.57,26.61-.85,1.77-2.39,4.54-4.02,5.19-4.55.5-2.85-25.98-3.56-29.65-.19-2.88-.84-5.66-1.57-8.54-24.56-105.78-222.37,30.48-217.59-47.35,3.09-12.96,17.21-23.56,30.91-18.87,3.94,1.25,7.87,3.88,9.93,7.54,4.84,8.82-4.1,21.34-9.85,20.76-4.58-2.65-7.67-8.74-12.03-11.95-1.74-1.42-3.53-2.44-4.43-1.74l-.13.1v.03Z"/>
    <path class="cls-1" d="M568.2,152.93c9.15,16.28-3.61,80.64.75,102.77.18,1.01.63,1.43,1.53,1.25,2.91-.7,8.68-2.9,11.76-3.79,1.77-.66,2.69.27,2.93,2.45,1.84,12.59-21.73,26.31-31.49,26.17-31.78-5.26-5.89-96.95-9.47-104.05-.17-.33-.52-.61-1.28-.78-2.48-.71-8.84,1.07-13.5.74-4.69-.04-6.58-4.1-5.13-8.08,6.98-12.21,34.03-29.7,43.75-16.82l.11.17v-.03Z"/>
    <path class="cls-1" d="M557.46,92.58c18.38-1.79,28.17,32.76,9.19,38.92-11.6,3.85-25.49-.87-26.08-14.56-.7-10.37,5.83-22.36,16.62-24.33l.27-.04h0Z"/>
  </g>
  <path class="cls-1" d="M47.74,12.6l3.06,14.23c1.28,5.95,5.92,10.59,11.88,11.88l14.23,3.06c1.16.24,1.16,1.9,0,2.14l-14.23,3.06c-5.95,1.28-10.59,5.92-11.88,11.88l-3.06,14.23c-.24,1.16-1.9,1.16-2.14,0l-3.06-14.23c-1.28-5.95-5.92-10.59-11.88-11.88l-14.23-3.06c-1.16-.24-1.16-1.9,0-2.14l14.23-3.06c5.95-1.28,10.59-5.92,11.88-11.88l3.06-14.23c.24-1.16,1.9-1.16,2.14,0Z"/>
  <path class="cls-1" d="M1176.85.87l3.06,14.23c1.28,5.95,5.92,10.59,11.88,11.88l14.23,3.06c1.16.24,1.16,1.9,0,2.14l-14.23,3.06c-5.95,1.28-10.59,5.92-11.88,11.88l-3.06,14.23c-.24,1.16-1.9,1.16-2.14,0l-3.06-14.23c-1.28-5.95-5.92-10.59-11.88-11.88l-14.23-3.06c-1.16-.24-1.16-1.9,0-2.14l14.23-3.06c5.95-1.28,10.59-5.92,11.88-11.88l3.06-14.23c.24-1.16,1.9-1.16,2.14,0Z"/>
  <path class="cls-1" d="M1218,597.53l2.19,10.22c1.28,5.95,5.92,10.59,11.88,11.88l10.22,2.19c1.16.24,1.16,1.9,0,2.14l-10.22,2.19c-5.95,1.28-10.59,5.92-11.88,11.88l-2.19,10.22c-.24,1.16-1.9,1.16-2.14,0l-2.19-10.22c-1.28-5.95-5.92-10.59-11.88-11.88l-10.22-2.19c-1.16-.24-1.16-1.9,0-2.14l10.22-2.19c5.95-1.28,10.59-5.92,11.88-11.88l2.19-10.22c.24-1.16,1.9-1.16,2.14,0Z"/>
  <path class="cls-1" d="M253.34,326.56l3.06,14.23c1.28,5.95,5.92,10.59,11.88,11.88l14.23,3.06c1.16.24,1.16,1.9,0,2.14l-14.23,3.06c-5.95,1.28-10.59,5.92-11.88,11.88l-3.06,14.23c-.24,1.16-1.9,1.16-2.14,0l-3.06-14.23c-1.28-5.95-5.92-10.59-11.88-11.88l-14.23-3.06c-1.16-.24-1.16-1.9,0-2.14l14.23-3.06c5.95-1.28,10.59-5.92,11.88-11.88l3.06-14.23c.24-1.16,1.9-1.16,2.14,0Z"/>
  <path class="cls-1" d="M528.57,320.19l1.22,5.72c1.28,5.95,5.92,10.59,11.88,11.88l5.72,1.22c1.16.24,1.16,1.9,0,2.14l-5.72,1.22c-5.95,1.28-10.59,5.92-11.88,11.88l-1.22,5.72c-.24,1.16-1.9,1.16-2.14,0l-1.22-5.72c-1.28-5.95-5.92-10.59-11.88-11.88l-5.72-1.22c-1.16-.24-1.16-1.9,0-2.14l5.72-1.22c5.95-1.28,10.59-5.92,11.88-11.88l1.22-5.72c.24-1.16,1.9-1.16,2.14,0Z"/>
  <path class="cls-1" d="M25.82,716.88c-1.16,0-2.11.94-2.11,2.11s.94,2.11,2.11,2.11,2.11-.94,2.11-2.11-.94-2.11-2.11-2.11Z"/>
</svg>